<?xml version="1.0" encoding="utf-8"?>
<!-- Generator: Adobe Illustrator 27.5.0, SVG Export Plug-In . SVG Version: 6.00 Build 0)  -->
<svg version="1.1" id="Capa_1" xmlns="http://www.w3.org/2000/svg" xmlns:xlink="http://www.w3.org/1999/xlink" x="0px" y="0px"
	 viewBox="0 0 800 800" style="enable-background:new 0 0 800 800;" xml:space="preserve">
<rect x="-6" y="-5" style="fill:#1D5258;" width="205" height="189"/>
<rect x="199" y="-5" style="fill:#77979B;" width="200" height="189"/>
<rect x="399" y="-5" style="fill:#D8A3A3;" width="200" height="189"/>
<rect x="599" y="-6" style="fill:#B75551;" width="211" height="189"/>
<rect x="-6" y="183" style="fill:#77979B;" width="205" height="185"/>
<rect x="199" y="183" style="fill:#B75551;" width="200" height="185"/>
<rect x="399" y="183" style="fill:#1D5258;" width="200" height="185"/>
<rect x="599" y="183" style="fill:#D8A3A3;" width="210" height="185"/>
<rect x="-6" y="368" style="fill:#D8A3A3;" width="205" height="184"/>
<rect x="199" y="368" style="fill:#1D5258;" width="200" height="184"/>
<rect x="399" y="368" style="fill:#B75551;" width="200" height="184"/>
<rect x="599" y="368" style="fill:#77979B;" width="210" height="184"/>
<rect x="-6" y="551" style="fill:#B75551;" width="205" height="192"/>
<rect x="199" y="551" style="fill:#D8A3A3;" width="200" height="192"/>
<rect x="399" y="551" style="fill:#77979B;" width="200" height="192"/>
<rect x="599" y="551" style="fill:#1D5258;" width="210" height="192"/>
<rect x="-5" y="739" style="fill:#163E42;" width="813" height="65"/>
<g>
	<g>
		<path style="fill:#77979B;" d="M294.665,775.138v-0.215c-0.29,0.335-0.576,0.605-0.859,0.814
			c-0.283,0.209-0.589,0.367-0.919,0.476c-0.331,0.109-0.69,0.162-1.081,0.162c-0.518,0-0.997-0.11-1.439-0.328
			c-0.44-0.223-0.822-0.534-1.142-0.94c-0.325-0.405-0.567-0.887-0.734-1.435c-0.167-0.548-0.25-1.142-0.25-1.782
			c0-1.352,0.332-2.405,0.992-3.16c0.659-0.755,1.529-1.133,2.605-1.133c0.624,0,1.149,0.108,1.577,0.322
			c0.427,0.215,0.843,0.541,1.25,0.987v-3.193c0-0.444,0.09-0.78,0.266-1.007c0.176-0.227,0.428-0.342,0.755-0.342
			c0.327,0,0.581,0.106,0.758,0.315c0.176,0.207,0.266,0.516,0.266,0.923v9.536c0,0.412-0.097,0.721-0.286,0.927
			c-0.19,0.208-0.437,0.311-0.738,0.311c-0.296,0-0.54-0.105-0.732-0.321C294.761,775.841,294.665,775.532,294.665,775.138z
			 M290.411,771.963c0,0.587,0.09,1.085,0.274,1.496c0.182,0.411,0.431,0.724,0.746,0.931c0.317,0.21,0.664,0.314,1.04,0.314
			c0.379,0,0.725-0.098,1.042-0.296c0.313-0.201,0.565-0.504,0.754-0.912c0.184-0.411,0.279-0.921,0.279-1.533
			c0-0.576-0.094-1.071-0.279-1.487c-0.189-0.413-0.442-0.731-0.762-0.948c-0.321-0.22-0.67-0.329-1.05-0.329
			c-0.397,0-0.75,0.11-1.061,0.336c-0.312,0.227-0.554,0.548-0.724,0.968C290.496,770.92,290.411,771.408,290.411,771.963z"/>
		<path style="fill:#77979B;" d="M304.915,772.508h-4.23c0.005,0.493,0.104,0.925,0.297,1.3c0.194,0.375,0.449,0.658,0.769,0.846
			c0.32,0.19,0.672,0.286,1.057,0.286c0.26,0,0.495-0.032,0.71-0.089c0.213-0.061,0.42-0.161,0.622-0.287
			c0.201-0.131,0.384-0.269,0.555-0.418c0.168-0.146,0.386-0.346,0.656-0.6c0.11-0.094,0.269-0.145,0.475-0.145
			c0.222,0,0.4,0.063,0.536,0.184c0.14,0.121,0.209,0.292,0.209,0.515c0,0.195-0.078,0.424-0.229,0.686
			c-0.156,0.26-0.385,0.513-0.695,0.752c-0.307,0.239-0.695,0.44-1.164,0.599c-0.467,0.157-1.004,0.237-1.611,0.237
			c-1.39,0-2.469-0.396-3.24-1.189c-0.771-0.792-1.156-1.866-1.156-3.224c0-0.638,0.095-1.234,0.286-1.78
			c0.191-0.545,0.466-1.015,0.831-1.405c0.365-0.388,0.814-0.69,1.347-0.901c0.534-0.206,1.125-0.31,1.775-0.31
			c0.845,0,1.569,0.177,2.173,0.534c0.606,0.358,1.057,0.818,1.36,1.382c0.301,0.565,0.452,1.142,0.452,1.727
			c0,0.543-0.157,0.897-0.469,1.06C305.919,772.429,305.481,772.508,304.915,772.508z M300.685,771.282h3.92
			c-0.052-0.74-0.252-1.292-0.598-1.659c-0.346-0.368-0.799-0.553-1.365-0.553c-0.539,0-0.982,0.186-1.327,0.559
			C300.97,770.002,300.759,770.554,300.685,771.282z"/>
		<path style="fill:#77979B;" d="M315.481,773.547c0,0.596-0.145,1.108-0.436,1.533c-0.289,0.424-0.717,0.745-1.285,0.968
			c-0.567,0.218-1.261,0.328-2.072,0.328c-0.778,0-1.444-0.12-1.997-0.357c-0.556-0.237-0.964-0.535-1.229-0.893
			c-0.263-0.353-0.396-0.713-0.396-1.07c0-0.239,0.084-0.443,0.251-0.611c0.171-0.168,0.384-0.255,0.643-0.255
			c0.228,0,0.401,0.057,0.522,0.167c0.123,0.112,0.241,0.267,0.35,0.467c0.221,0.386,0.487,0.674,0.795,0.864
			c0.311,0.19,0.732,0.286,1.266,0.286c0.431,0,0.788-0.096,1.064-0.29c0.277-0.192,0.415-0.412,0.415-0.66
			c0-0.382-0.145-0.659-0.433-0.833c-0.287-0.172-0.761-0.34-1.419-0.497c-0.746-0.187-1.35-0.379-1.819-0.582
			c-0.466-0.205-0.84-0.472-1.12-0.805c-0.28-0.331-0.419-0.742-0.419-1.229c0-0.43,0.127-0.842,0.387-1.228
			c0.257-0.384,0.642-0.691,1.142-0.922c0.505-0.231,1.116-0.345,1.828-0.345c0.558,0,1.061,0.058,1.508,0.174
			c0.446,0.12,0.818,0.274,1.117,0.47c0.299,0.198,0.525,0.41,0.681,0.649c0.156,0.24,0.234,0.471,0.234,0.696
			c0,0.248-0.082,0.453-0.251,0.607c-0.164,0.161-0.402,0.238-0.707,0.238c-0.223,0-0.411-0.062-0.567-0.187
			c-0.156-0.128-0.334-0.319-0.536-0.569c-0.164-0.214-0.355-0.384-0.578-0.51c-0.223-0.127-0.522-0.19-0.902-0.19
			c-0.393,0-0.717,0.083-0.976,0.252c-0.259,0.166-0.389,0.371-0.389,0.619c0,0.229,0.096,0.414,0.286,0.559
			c0.189,0.145,0.445,0.264,0.769,0.36c0.319,0.094,0.764,0.212,1.33,0.348c0.672,0.164,1.219,0.359,1.645,0.585
			c0.425,0.229,0.746,0.496,0.965,0.806C315.372,772.797,315.481,773.151,315.481,773.547z"/>
		<path style="fill:#77979B;" d="M318.405,766.577c-0.301,0-0.558-0.095-0.773-0.278c-0.213-0.184-0.319-0.446-0.319-0.784
			c0-0.307,0.109-0.561,0.329-0.758c0.217-0.198,0.472-0.296,0.763-0.296c0.279,0,0.528,0.087,0.744,0.267
			c0.217,0.181,0.326,0.443,0.326,0.787c0,0.331-0.105,0.592-0.316,0.78C318.946,766.482,318.695,766.577,318.405,766.577z
			 M319.475,768.808v6.252c0,0.433-0.104,0.76-0.31,0.983c-0.206,0.221-0.467,0.333-0.783,0.333c-0.317,0-0.577-0.115-0.773-0.341
			c-0.199-0.227-0.297-0.552-0.297-0.974v-6.187c0-0.429,0.098-0.751,0.297-0.967c0.196-0.216,0.456-0.326,0.773-0.326
			c0.315,0,0.577,0.109,0.783,0.326C319.371,768.122,319.475,768.426,319.475,768.808z"/>
		<path style="fill:#77979B;" d="M329.661,769.166v6.279c0,0.721-0.076,1.337-0.228,1.854c-0.154,0.52-0.4,0.947-0.738,1.284
			c-0.337,0.338-0.78,0.589-1.328,0.755c-0.546,0.16-1.226,0.242-2.037,0.242c-0.745,0-1.411-0.102-1.998-0.311
			c-0.587-0.209-1.035-0.478-1.355-0.807c-0.316-0.331-0.474-0.67-0.474-1.02c0-0.262,0.09-0.478,0.269-0.645
			c0.179-0.166,0.395-0.251,0.65-0.251c0.314,0,0.592,0.142,0.83,0.42c0.117,0.144,0.237,0.288,0.361,0.433
			c0.123,0.144,0.263,0.27,0.411,0.373c0.15,0.102,0.332,0.179,0.543,0.23c0.211,0.049,0.456,0.076,0.729,0.076
			c0.559,0,0.996-0.076,1.304-0.235c0.309-0.155,0.524-0.373,0.65-0.651c0.124-0.283,0.195-0.581,0.216-0.902
			c0.023-0.316,0.038-0.83,0.049-1.54c-0.334,0.466-0.718,0.82-1.154,1.063c-0.434,0.242-0.954,0.364-1.556,0.364
			c-0.721,0-1.355-0.184-1.897-0.555c-0.543-0.369-0.956-0.886-1.247-1.552c-0.29-0.667-0.436-1.434-0.436-2.306
			c0-0.648,0.088-1.234,0.266-1.758c0.177-0.523,0.43-0.964,0.757-1.324c0.327-0.36,0.705-0.631,1.132-0.81
			c0.427-0.181,0.899-0.274,1.411-0.274c0.611,0,1.142,0.117,1.592,0.353c0.447,0.234,0.864,0.603,1.253,1.104v-0.291
			c0-0.374,0.091-0.666,0.275-0.872c0.184-0.207,0.422-0.311,0.713-0.311c0.417,0,0.692,0.138,0.831,0.41
			C329.592,768.261,329.661,768.653,329.661,769.166z M323.394,771.906c0,0.878,0.193,1.543,0.575,1.988
			c0.384,0.45,0.88,0.675,1.485,0.675c0.359,0,0.699-0.096,1.018-0.289c0.32-0.192,0.581-0.483,0.781-0.872
			c0.199-0.388,0.301-0.859,0.301-1.415c0-0.881-0.195-1.567-0.583-2.06c-0.388-0.491-0.899-0.735-1.533-0.735
			c-0.618,0-1.113,0.233-1.485,0.705C323.581,770.373,323.394,771.041,323.394,771.906z"/>
		<path style="fill:#77979B;" d="M333.814,768.778v0.261c0.379-0.501,0.794-0.87,1.246-1.105c0.452-0.233,0.971-0.353,1.556-0.353
			c0.571,0,1.079,0.124,1.531,0.375c0.446,0.247,0.782,0.599,1.003,1.053c0.144,0.264,0.235,0.548,0.278,0.854
			c0.042,0.308,0.063,0.698,0.063,1.173v4.024c0,0.433-0.099,0.76-0.296,0.983c-0.197,0.221-0.458,0.333-0.772,0.333
			c-0.323,0-0.585-0.115-0.784-0.341c-0.201-0.227-0.301-0.552-0.301-0.974v-3.604c0-0.713-0.099-1.258-0.297-1.638
			c-0.2-0.376-0.593-0.565-1.185-0.565c-0.387,0-0.736,0.116-1.053,0.345c-0.318,0.227-0.551,0.544-0.7,0.946
			c-0.102,0.323-0.157,0.927-0.157,1.807v2.709c0,0.44-0.102,0.765-0.304,0.987c-0.204,0.218-0.468,0.328-0.788,0.328
			c-0.312,0-0.566-0.115-0.768-0.341c-0.201-0.227-0.301-0.552-0.301-0.974v-6.252c0-0.411,0.09-0.718,0.268-0.921
			c0.178-0.203,0.424-0.306,0.738-0.306c0.19,0,0.361,0.047,0.514,0.135c0.151,0.091,0.276,0.227,0.368,0.404
			C333.765,768.301,333.814,768.516,333.814,768.778z"/>
		<path style="fill:#77979B;" d="M347.683,772.508h-4.231c0.006,0.493,0.104,0.925,0.297,1.3c0.193,0.375,0.45,0.658,0.768,0.846
			c0.32,0.19,0.673,0.286,1.059,0.286c0.258,0,0.496-0.032,0.708-0.089c0.213-0.061,0.42-0.161,0.623-0.287
			c0.2-0.131,0.385-0.269,0.554-0.418c0.168-0.146,0.387-0.346,0.656-0.6c0.112-0.094,0.271-0.145,0.474-0.145
			c0.224,0,0.401,0.063,0.541,0.184c0.137,0.121,0.205,0.292,0.205,0.515c0,0.195-0.075,0.424-0.23,0.686
			c-0.152,0.26-0.384,0.513-0.693,0.752c-0.308,0.239-0.697,0.44-1.164,0.599c-0.468,0.157-1.006,0.237-1.611,0.237
			c-1.39,0-2.469-0.396-3.24-1.189c-0.773-0.792-1.158-1.866-1.158-3.224c0-0.638,0.096-1.234,0.285-1.78
			c0.192-0.545,0.468-1.015,0.834-1.405c0.364-0.388,0.812-0.69,1.346-0.901c0.534-0.206,1.124-0.31,1.775-0.31
			c0.844,0,1.568,0.177,2.174,0.534c0.604,0.358,1.057,0.818,1.359,1.382c0.301,0.565,0.451,1.142,0.451,1.727
			c0,0.543-0.157,0.897-0.466,1.06C348.685,772.429,348.248,772.508,347.683,772.508z M343.451,771.282h3.921
			c-0.055-0.74-0.252-1.292-0.598-1.659c-0.345-0.368-0.803-0.553-1.366-0.553c-0.54,0-0.982,0.186-1.328,0.559
			C343.736,770.002,343.525,770.554,343.451,771.282z"/>
		<path style="fill:#77979B;" d="M357.211,775.138v-0.215c-0.29,0.335-0.576,0.605-0.859,0.814c-0.282,0.209-0.59,0.367-0.917,0.476
			c-0.332,0.109-0.692,0.162-1.083,0.162c-0.518,0-0.995-0.11-1.438-0.328c-0.44-0.223-0.822-0.534-1.145-0.94
			c-0.321-0.405-0.565-0.887-0.732-1.435c-0.167-0.548-0.25-1.142-0.25-1.782c0-1.352,0.331-2.405,0.99-3.16
			c0.66-0.755,1.53-1.133,2.607-1.133c0.624,0,1.149,0.108,1.574,0.322c0.428,0.215,0.846,0.541,1.253,0.987v-3.193
			c0-0.444,0.09-0.78,0.267-1.007c0.178-0.227,0.428-0.342,0.758-0.342c0.325,0,0.575,0.106,0.755,0.315
			c0.178,0.207,0.264,0.516,0.264,0.923v9.536c0,0.412-0.094,0.721-0.284,0.927c-0.191,0.208-0.436,0.311-0.736,0.311
			c-0.297,0-0.541-0.105-0.734-0.321C357.308,775.841,357.211,775.532,357.211,775.138z M352.959,771.963
			c0,0.587,0.09,1.085,0.272,1.496c0.183,0.411,0.43,0.724,0.751,0.931c0.315,0.21,0.661,0.314,1.035,0.314
			c0.382,0,0.729-0.098,1.043-0.296c0.311-0.201,0.564-0.504,0.751-0.912c0.189-0.411,0.283-0.921,0.283-1.533
			c0-0.576-0.094-1.071-0.283-1.487c-0.186-0.413-0.439-0.731-0.761-0.948c-0.319-0.22-0.668-0.329-1.049-0.329
			c-0.396,0-0.75,0.11-1.062,0.336c-0.313,0.227-0.552,0.548-0.724,0.968C353.044,770.92,352.959,771.408,352.959,771.963z"/>
		<path style="fill:#77979B;" d="M367.478,765.602v3.304c0.406-0.425,0.821-0.747,1.243-0.972c0.422-0.225,0.944-0.337,1.57-0.337
			c0.716,0,1.345,0.171,1.887,0.512c0.541,0.34,0.961,0.834,1.259,1.479c0.299,0.647,0.448,1.415,0.448,2.302
			c0,0.656-0.083,1.255-0.25,1.802c-0.166,0.548-0.408,1.021-0.723,1.42c-0.317,0.4-0.701,0.711-1.152,0.934
			c-0.452,0.218-0.951,0.328-1.496,0.328c-0.331,0-0.645-0.041-0.937-0.12c-0.293-0.079-0.543-0.182-0.748-0.311
			c-0.206-0.13-0.383-0.263-0.529-0.401c-0.145-0.136-0.334-0.342-0.573-0.62v0.215c0,0.409-0.097,0.715-0.294,0.926
			c-0.195,0.207-0.442,0.312-0.745,0.312c-0.305,0-0.549-0.105-0.733-0.312c-0.181-0.211-0.273-0.517-0.273-0.926v-9.441
			c0-0.436,0.089-0.769,0.267-0.996c0.178-0.222,0.423-0.336,0.739-0.336c0.333,0,0.591,0.107,0.77,0.323
			C367.388,764.901,367.478,765.206,367.478,765.602z M367.58,772.025c0,0.862,0.197,1.524,0.59,1.984
			c0.395,0.464,0.909,0.695,1.548,0.695c0.544,0,1.013-0.236,1.407-0.711c0.393-0.47,0.589-1.149,0.589-2.031
			c0-0.571-0.083-1.06-0.246-1.473c-0.162-0.414-0.395-0.728-0.696-0.955c-0.298-0.226-0.651-0.336-1.053-0.336
			c-0.414,0-0.778,0.11-1.101,0.336c-0.322,0.227-0.575,0.55-0.761,0.976C367.673,770.934,367.58,771.44,367.58,772.025z"/>
		<path style="fill:#77979B;" d="M377.404,776.645l0.197-0.484l-2.661-6.701c-0.165-0.386-0.247-0.664-0.247-0.839
			c0-0.184,0.049-0.358,0.143-0.515c0.095-0.16,0.227-0.286,0.392-0.381c0.166-0.094,0.341-0.144,0.519-0.144
			c0.313,0,0.548,0.1,0.705,0.296c0.159,0.201,0.299,0.482,0.42,0.854l1.831,5.325l1.734-4.951c0.138-0.404,0.262-0.714,0.37-0.946
			c0.113-0.225,0.23-0.378,0.356-0.457c0.123-0.079,0.299-0.12,0.524-0.12c0.164,0,0.321,0.045,0.472,0.131
			c0.151,0.087,0.266,0.205,0.348,0.352c0.081,0.151,0.124,0.305,0.124,0.469c-0.022,0.1-0.055,0.242-0.102,0.427
			c-0.049,0.186-0.107,0.372-0.174,0.564l-2.819,7.38c-0.245,0.653-0.481,1.159-0.715,1.528c-0.231,0.37-0.54,0.654-0.922,0.853
			c-0.383,0.198-0.9,0.296-1.55,0.296c-0.633,0-1.109-0.067-1.425-0.204c-0.317-0.136-0.474-0.388-0.474-0.751
			c0-0.248,0.075-0.441,0.227-0.575c0.149-0.135,0.371-0.204,0.669-0.204c0.115,0,0.228,0.018,0.34,0.049
			c0.138,0.034,0.257,0.048,0.357,0.048c0.249,0,0.441-0.039,0.585-0.113c0.142-0.074,0.272-0.2,0.384-0.385
			C377.124,777.265,377.255,776.997,377.404,776.645z"/>
	</g>
	<g>
		<path style="fill:#77979B;" d="M417.421,767.771h0.518v-0.647c0-0.677,0.083-1.216,0.258-1.614c0.167-0.397,0.46-0.691,0.869-0.87
			c0.409-0.183,0.97-0.276,1.684-0.276c1.262,0,1.894,0.309,1.894,0.928c0,0.203-0.067,0.374-0.199,0.517
			c-0.131,0.141-0.288,0.213-0.467,0.213c-0.09,0-0.231-0.015-0.438-0.047c-0.205-0.033-0.378-0.047-0.522-0.047
			c-0.391,0-0.641,0.114-0.749,0.344c-0.114,0.23-0.166,0.56-0.166,0.986v0.514h0.527c0.824,0,1.235,0.252,1.235,0.746
			c0,0.355-0.107,0.58-0.329,0.674c-0.219,0.095-0.519,0.142-0.906,0.142h-0.527v5.728c0,0.427-0.105,0.754-0.31,0.979
			c-0.202,0.225-0.467,0.337-0.788,0.337c-0.304,0-0.557-0.112-0.763-0.337c-0.204-0.225-0.302-0.552-0.302-0.979v-5.728h-0.596
			c-0.32,0-0.57-0.071-0.744-0.219c-0.175-0.143-0.263-0.332-0.263-0.566C416.335,768.033,416.697,767.771,417.421,767.771z"/>
		<path style="fill:#77979B;" d="M425.144,773.254v1.807c0,0.44-0.101,0.765-0.307,0.987c-0.209,0.218-0.467,0.328-0.786,0.328
			c-0.308,0-0.566-0.112-0.768-0.333c-0.201-0.223-0.301-0.549-0.301-0.983v-6.021c0-0.971,0.353-1.458,1.053-1.458
			c0.36,0,0.62,0.114,0.779,0.341c0.157,0.227,0.242,0.563,0.26,1.009c0.263-0.445,0.525-0.781,0.796-1.009
			c0.274-0.227,0.639-0.341,1.09-0.341c0.452,0,0.895,0.114,1.322,0.341c0.43,0.227,0.643,0.53,0.643,0.905
			c0,0.264-0.09,0.481-0.276,0.654c-0.179,0.169-0.376,0.255-0.589,0.255c-0.077,0-0.271-0.047-0.577-0.146
			c-0.302-0.099-0.569-0.146-0.802-0.146c-0.316,0-0.576,0.085-0.775,0.252c-0.198,0.164-0.359,0.412-0.466,0.742
			c-0.113,0.326-0.189,0.717-0.234,1.167C425.166,772.053,425.144,772.606,425.144,773.254z"/>
		<path style="fill:#77979B;" d="M435.736,772.508h-4.23c0.006,0.493,0.102,0.925,0.297,1.3c0.191,0.375,0.448,0.658,0.768,0.846
			c0.321,0.19,0.674,0.286,1.057,0.286c0.259,0,0.497-0.032,0.711-0.089c0.212-0.061,0.419-0.161,0.619-0.287
			c0.201-0.131,0.388-0.269,0.558-0.418c0.167-0.146,0.385-0.346,0.654-0.6c0.111-0.094,0.273-0.145,0.48-0.145
			c0.218,0,0.397,0.063,0.533,0.184c0.14,0.121,0.208,0.292,0.208,0.515c0,0.195-0.076,0.424-0.228,0.686
			c-0.156,0.26-0.384,0.513-0.691,0.752c-0.312,0.239-0.699,0.44-1.169,0.599c-0.465,0.157-1.004,0.237-1.611,0.237
			c-1.39,0-2.468-0.396-3.239-1.189c-0.77-0.792-1.158-1.866-1.158-3.224c0-0.638,0.096-1.234,0.286-1.78
			c0.19-0.545,0.467-1.015,0.829-1.405c0.367-0.388,0.817-0.69,1.35-0.901c0.533-0.206,1.124-0.31,1.775-0.31
			c0.842,0,1.566,0.177,2.171,0.534c0.606,0.358,1.061,0.818,1.36,1.382c0.299,0.565,0.451,1.142,0.451,1.727
			c0,0.543-0.154,0.897-0.466,1.06C436.738,772.429,436.301,772.508,435.736,772.508z M431.506,771.282h3.921
			c-0.052-0.74-0.249-1.292-0.598-1.659c-0.347-0.368-0.801-0.553-1.367-0.553c-0.538,0-0.982,0.186-1.327,0.559
			C431.792,770.002,431.58,770.554,431.506,771.282z"/>
		<path style="fill:#77979B;" d="M445.377,772.508h-4.23c0.003,0.493,0.104,0.925,0.297,1.3c0.192,0.375,0.447,0.658,0.766,0.846
			c0.321,0.19,0.673,0.286,1.059,0.286c0.257,0,0.495-0.032,0.707-0.089c0.214-0.061,0.423-0.161,0.623-0.287
			c0.202-0.131,0.386-0.269,0.554-0.418c0.17-0.146,0.39-0.346,0.659-0.6c0.11-0.094,0.267-0.145,0.474-0.145
			c0.223,0,0.399,0.063,0.537,0.184c0.139,0.121,0.208,0.292,0.208,0.515c0,0.195-0.077,0.424-0.23,0.686
			c-0.153,0.26-0.386,0.513-0.694,0.752c-0.309,0.239-0.696,0.44-1.163,0.599c-0.469,0.157-1.006,0.237-1.614,0.237
			c-1.386,0-2.467-0.396-3.239-1.189c-0.77-0.792-1.154-1.866-1.154-3.224c0-0.638,0.094-1.234,0.283-1.78
			c0.19-0.545,0.468-1.015,0.831-1.405c0.365-0.388,0.815-0.69,1.348-0.901c0.533-0.206,1.124-0.31,1.773-0.31
			c0.848,0,1.571,0.177,2.175,0.534c0.605,0.358,1.057,0.818,1.358,1.382c0.304,0.565,0.453,1.142,0.453,1.727
			c0,0.543-0.155,0.897-0.469,1.06C446.382,772.429,445.943,772.508,445.377,772.508z M441.147,771.282h3.921
			c-0.055-0.74-0.255-1.292-0.598-1.659c-0.348-0.368-0.801-0.553-1.366-0.553c-0.54,0-0.982,0.186-1.33,0.559
			C441.43,770.002,441.218,770.554,441.147,771.282z"/>
		<path style="fill:#77979B;" d="M450.762,768.795v0.26c0.411-0.5,0.831-0.87,1.269-1.104c0.438-0.236,0.935-0.353,1.489-0.353
			c0.665,0,1.278,0.171,1.836,0.515c0.563,0.347,1.006,0.845,1.331,1.506c0.324,0.659,0.486,1.441,0.486,2.345
			c0,0.663-0.094,1.274-0.283,1.834c-0.186,0.555-0.444,1.025-0.773,1.401c-0.325,0.378-0.71,0.67-1.158,0.873
			c-0.445,0.202-0.926,0.305-1.438,0.305c-0.618,0-1.135-0.126-1.557-0.374c-0.419-0.246-0.819-0.61-1.201-1.093v3.248
			c0,0.952-0.345,1.424-1.035,1.424c-0.409,0-0.675-0.122-0.807-0.368c-0.133-0.245-0.199-0.601-0.199-1.072v-9.333
			c0-0.411,0.091-0.718,0.268-0.921c0.179-0.203,0.423-0.306,0.738-0.306c0.303,0,0.556,0.104,0.748,0.315
			C450.667,768.106,450.762,768.405,450.762,768.795z M455.001,771.938c0-0.57-0.086-1.06-0.263-1.467
			c-0.173-0.41-0.415-0.726-0.724-0.943c-0.308-0.22-0.648-0.329-1.024-0.329c-0.598,0-1.1,0.233-1.51,0.705
			c-0.408,0.47-0.614,1.161-0.614,2.076c0,0.861,0.203,1.529,0.61,2.008c0.408,0.479,0.911,0.717,1.514,0.717
			c0.357,0,0.693-0.104,0.996-0.314c0.309-0.207,0.553-0.52,0.736-0.936C454.908,773.036,455.001,772.531,455.001,771.938z"/>
		<path style="fill:#77979B;" d="M460.002,766.577c-0.302,0-0.56-0.095-0.773-0.278c-0.213-0.184-0.322-0.446-0.322-0.784
			c0-0.307,0.109-0.561,0.327-0.758c0.219-0.198,0.475-0.296,0.768-0.296c0.279,0,0.524,0.087,0.741,0.267
			c0.219,0.181,0.324,0.443,0.324,0.787c0,0.331-0.102,0.592-0.313,0.78C460.541,766.482,460.291,766.577,460.002,766.577z
			 M461.067,768.808v6.252c0,0.433-0.101,0.76-0.31,0.983c-0.203,0.221-0.462,0.333-0.782,0.333c-0.318,0-0.573-0.115-0.771-0.341
			c-0.2-0.227-0.297-0.552-0.297-0.974v-6.187c0-0.429,0.097-0.751,0.297-0.967c0.198-0.216,0.453-0.326,0.771-0.326
			c0.32,0,0.579,0.109,0.782,0.326C460.966,768.122,461.067,768.426,461.067,768.808z"/>
		<path style="fill:#77979B;" d="M468.688,775.383l-1.907-3.136l-1.172,1.109v1.721c0,0.417-0.11,0.737-0.329,0.962
			c-0.22,0.225-0.473,0.337-0.755,0.337c-0.334,0-0.594-0.112-0.787-0.333c-0.189-0.223-0.283-0.549-0.283-0.983v-9.221
			c0-0.48,0.088-0.848,0.277-1.097c0.185-0.252,0.449-0.378,0.793-0.378c0.334,0,0.595,0.114,0.79,0.342
			c0.196,0.227,0.294,0.563,0.294,1.007v5.243l2.431-2.548c0.302-0.32,0.529-0.534,0.688-0.653c0.16-0.116,0.351-0.174,0.581-0.174
			c0.267,0,0.493,0.086,0.672,0.26c0.179,0.172,0.272,0.386,0.272,0.644c0,0.319-0.296,0.741-0.881,1.267l-1.149,1.054l2.219,3.485
			c0.164,0.256,0.28,0.456,0.351,0.589c0.071,0.134,0.107,0.265,0.107,0.384c0,0.346-0.094,0.615-0.283,0.814
			c-0.186,0.198-0.435,0.297-0.736,0.297c-0.264,0-0.469-0.07-0.611-0.216C469.124,776.018,468.932,775.759,468.688,775.383z"/>
		<path style="fill:#77979B;" d="M474.038,776.376c-0.33,0-0.612-0.105-0.848-0.318c-0.236-0.212-0.358-0.508-0.358-0.888
			c0-0.323,0.114-0.6,0.339-0.832c0.23-0.232,0.511-0.347,0.843-0.347c0.331,0,0.612,0.113,0.85,0.344
			c0.234,0.231,0.352,0.508,0.352,0.836c0,0.377-0.118,0.671-0.352,0.884C474.626,776.27,474.352,776.376,474.038,776.376z"/>
		<path style="fill:#77979B;" d="M485.437,773.696c0,0.27-0.083,0.559-0.244,0.865c-0.16,0.305-0.406,0.598-0.735,0.876
			c-0.332,0.277-0.749,0.5-1.246,0.669c-0.506,0.17-1.068,0.251-1.701,0.251c-1.331,0-2.375-0.385-3.127-1.166
			c-0.747-0.78-1.122-1.824-1.122-3.133c0-0.888,0.167-1.67,0.513-2.353c0.341-0.682,0.84-1.21,1.49-1.579
			c0.647-0.373,1.425-0.559,2.329-0.559c0.558,0,1.07,0.082,1.54,0.244c0.466,0.165,0.865,0.375,1.185,0.634
			c0.325,0.26,0.576,0.535,0.749,0.828c0.168,0.293,0.256,0.567,0.256,0.822c0,0.256-0.099,0.477-0.293,0.655
			c-0.19,0.18-0.425,0.268-0.699,0.268c-0.18,0-0.332-0.046-0.449-0.138c-0.116-0.094-0.252-0.242-0.4-0.445
			c-0.261-0.403-0.539-0.706-0.826-0.907c-0.288-0.198-0.655-0.3-1.097-0.3c-0.639,0-1.156,0.251-1.547,0.748
			c-0.388,0.498-0.587,1.181-0.587,2.047c0,0.407,0.05,0.783,0.151,1.121c0.102,0.341,0.248,0.632,0.436,0.873
			c0.188,0.241,0.42,0.422,0.689,0.547c0.271,0.124,0.566,0.185,0.889,0.185c0.431,0,0.802-0.099,1.112-0.3
			c0.309-0.201,0.58-0.506,0.821-0.919c0.133-0.241,0.276-0.434,0.428-0.569c0.154-0.138,0.34-0.208,0.56-0.208
			c0.265,0,0.486,0.101,0.659,0.301C485.348,773.257,485.437,773.471,485.437,773.696z"/>
		<path style="fill:#77979B;" d="M495.415,771.979c0,0.643-0.101,1.238-0.301,1.781c-0.201,0.546-0.492,1.012-0.871,1.4
			c-0.379,0.391-0.836,0.692-1.363,0.903c-0.526,0.207-1.122,0.312-1.781,0.312c-0.655,0-1.243-0.105-1.767-0.318
			c-0.521-0.212-0.974-0.511-1.358-0.906c-0.382-0.395-0.672-0.86-0.87-1.394c-0.198-0.537-0.296-1.132-0.296-1.779
			c0-0.655,0.098-1.254,0.299-1.802c0.2-0.541,0.488-1.006,0.862-1.391c0.375-0.384,0.828-0.68,1.363-0.89
			c0.535-0.212,1.122-0.315,1.767-0.315c0.656,0,1.249,0.107,1.781,0.319c0.534,0.21,0.99,0.512,1.371,0.904
			c0.382,0.388,0.671,0.856,0.869,1.394C495.314,770.737,495.415,771.329,495.415,771.979z M493.247,771.979
			c0-0.882-0.197-1.57-0.584-2.06c-0.388-0.492-0.909-0.736-1.565-0.736c-0.423,0-0.796,0.106-1.117,0.327
			c-0.319,0.22-0.571,0.544-0.744,0.971c-0.176,0.425-0.263,0.926-0.263,1.497c0,0.564,0.087,1.057,0.257,1.48
			c0.172,0.423,0.419,0.747,0.738,0.971c0.319,0.225,0.693,0.336,1.129,0.336c0.656,0,1.177-0.246,1.565-0.741
			C493.049,773.532,493.247,772.849,493.247,771.979z"/>
		<path style="fill:#77979B;" d="M504.313,772.138v2.873c0,0.456-0.106,0.796-0.31,1.023c-0.206,0.227-0.48,0.341-0.817,0.341
			c-0.326,0-0.592-0.115-0.796-0.341c-0.202-0.227-0.305-0.567-0.305-1.023v-3.446c0-0.543-0.018-0.964-0.056-1.267
			c-0.034-0.3-0.136-0.545-0.298-0.739c-0.165-0.193-0.425-0.288-0.778-0.288c-0.707,0-1.175,0.242-1.397,0.727
			c-0.225,0.485-0.34,1.183-0.34,2.091v2.922c0,0.451-0.101,0.79-0.304,1.017c-0.204,0.232-0.471,0.347-0.806,0.347
			c-0.323,0-0.595-0.115-0.804-0.347c-0.208-0.228-0.311-0.567-0.311-1.017v-6.185c0-0.404,0.092-0.717,0.281-0.927
			c0.186-0.212,0.434-0.319,0.741-0.319c0.297,0,0.543,0.1,0.741,0.296c0.197,0.201,0.296,0.473,0.296,0.823v0.206
			c0.375-0.447,0.777-0.78,1.203-0.99c0.43-0.211,0.905-0.319,1.428-0.319c0.543,0,1.011,0.108,1.399,0.324
			c0.393,0.218,0.716,0.544,0.968,0.984c0.367-0.445,0.755-0.772,1.172-0.987c0.417-0.214,0.881-0.322,1.39-0.322
			c0.589,0,1.101,0.115,1.525,0.348c0.43,0.235,0.747,0.564,0.96,0.998c0.186,0.391,0.277,1.006,0.277,1.846v4.222
			c0,0.456-0.104,0.796-0.31,1.023c-0.205,0.227-0.475,0.341-0.813,0.341c-0.326,0-0.596-0.115-0.806-0.347
			c-0.209-0.228-0.312-0.567-0.312-1.017v-3.634c0-0.464-0.021-0.838-0.058-1.119c-0.044-0.279-0.15-0.514-0.323-0.704
			c-0.172-0.19-0.439-0.283-0.792-0.283c-0.284,0-0.554,0.083-0.813,0.253c-0.253,0.17-0.454,0.395-0.598,0.679
			C504.39,770.568,504.313,771.213,504.313,772.138z"/>
	</g>
	<g>
		<path style="fill:#77979B;" d="M400.384,762.005c-0.046-0.137-0.096-0.275-0.141-0.415c0.729-0.065,1.217-0.935,0.862-1.581
			c-0.324-0.728-1.445-0.818-1.877-0.15c-0.463,0.589-0.102,1.523,0.606,1.71c0.042,0.15,0.086,0.3,0.13,0.45
			c-1.088,0.068-2.2,0.312-3.111,0.932c0.091,0.266,0.187,0.531,0.279,0.796c1.843-0.807,3.914-0.63,5.857-0.437
			c0.064-0.256,0.127-0.513,0.192-0.769C402.302,762.144,401.338,761.998,400.384,762.005z"/>
		<path style="fill:#77979B;" d="M411.344,764.982c-0.293,0.148-0.347,0.497-0.332,0.794c-0.323,0.313-0.172,0.788-0.208,1.187
			c-0.072,0.221-0.337,0.245-0.52,0.33c-0.257-0.388-0.528-0.763-0.867-1.08l0.001-0.018c-0.371-0.348-0.773-0.661-1.195-0.938
			c-0.344,0.364-0.699,0.721-1.029,1.102c0.649,0.716,1.249,1.478,1.78,2.288c0.362,0.613,0.659,1.265,0.913,1.932
			c0.548-0.278,1.09-0.573,1.637-0.859c-0.288-0.67-0.62-1.322-0.971-1.963c0.242-0.128,0.568-0.257,0.606-0.573
			c0.028-0.352-0.052-0.729,0.163-1.037c0.42,0.278,1.064-0.036,1.069-0.552C412.45,765.066,411.781,764.679,411.344,764.982z"/>
		<path style="fill:#77979B;" d="M408.378,768.957c-0.713-1.183-1.485-2.359-2.537-3.274c-1.213-1.067-2.789-1.788-4.423-1.781
			c-2.068-0.026-4.16,0.312-6.061,1.14c-1.794,0.788-3.353,2.19-4.143,4.007c-0.761,1.631-0.752,3.51-0.408,5.247
			c1.902,0.476,3.832,0.899,5.796,0.992c1.934,0.061,3.88,0.107,5.803-0.164c2.638-0.346,5.226-1.186,7.53-2.532
			C409.934,772.592,409.618,770.854,408.378,768.957z M399.034,771.295c-0.356,0.521-0.87,0.925-1.462,1.151
			c-1.111,0.414-2.464,0.132-3.263-0.755c-0.558-0.611-0.89-1.44-0.829-2.274c0.042-1.043,0.686-2.012,1.6-2.502
			c0.699-0.379,1.54-0.444,2.297-0.231c0.321,0.08,0.615,0.231,0.888,0.411c0.562,0.4,0.987,0.988,1.172,1.653
			C399.697,769.599,399.531,770.558,399.034,771.295z M407.045,769.417c-0.13,0.89-0.983,1.645-1.893,1.587
			c-0.529,0.046-1.037-0.205-1.393-0.578c-0.257-0.318-0.468-0.688-0.504-1.106c-0.121-0.905,0.513-1.836,1.401-2.054
			c0.387-0.109,0.795-0.048,1.181,0.042C406.671,767.604,407.218,768.544,407.045,769.417z"/>
		<path style="fill:#77979B;" d="M391.239,766.312c-0.774,0.465-1.407,1.125-1.938,1.847c-0.155-0.284-0.202-0.627-0.404-0.884
			c-0.113-0.153-0.321-0.091-0.481-0.094c-0.205,0.023-0.405-0.034-0.597-0.093c0.223-0.319,0.167-0.806-0.182-1.012
			c-0.368-0.267-0.941-0.037-1.039,0.404c-0.156,0.483,0.357,0.967,0.831,0.839c0.25,0.369,0.705,0.31,1.09,0.326
			c0.175,0.301,0.305,0.631,0.528,0.905c-0.413,0.817-0.646,1.731-0.665,2.648c0.53,0.221,1.062,0.448,1.594,0.669
			c0.027-0.577,0.095-1.152,0.184-1.722c0.178-1.238,0.895-2.317,1.743-3.208C391.695,766.717,391.461,766.523,391.239,766.312z"/>
		<path style="fill:#77979B;" d="M403.667,775.667c-1.962,0.428-3.981,0.552-5.986,0.464c-1.353-0.068-2.708-0.194-4.03-0.487
			c-0.939-0.191-1.857-0.461-2.777-0.724c0.145,1.18,0.621,2.308,1.303,3.278c0.803,1.127,1.875,2.165,3.213,2.581
			c1.042,0.28,2.285,0.639,4.426,0.603c1.771-0.033,3.512-0.258,5.067-0.916c1.001-0.433,1.943-1.02,2.747-1.755
			c0.699-0.657,1.246-1.478,1.621-2.359c0.367-0.832,0.698-2.323,0.66-3.089C407.997,774.35,405.849,775.3,403.667,775.667z"/>
	</g>
</g>
<polyline style="fill:#153D3F;" points="529.583,226.5 597.958,296.875 598,368 496.25,367.75 437.75,305.75 "/>
<polyline style="fill:#153D3F;" points="148.667,41.667 198.958,111.875 199,183 97.25,183.031 45.063,149.625 74.833,125.833 
	52,96.5 57,92.5 114.833,49.031 148.667,41.667 "/>
<polyline style="fill:#153D3F;" points="756.167,616.667 799.958,668.875 800,740 676.167,740.167 641.333,696.5 655.167,685 "/>
<polyline style="fill:#153D3F;" points="293.667,402.333 398.667,497.667 398,550 301.333,551 260.667,513 269.667,482 
	274.667,464.667 289,459 293.667,402.333 "/>
<polygon style="fill:#BF8484;" points="756.688,236.938 800.031,296.953 800,368 698.234,368 649.167,336.333 662.688,327.125 
	663.313,320.375 704.688,278.063 709.438,282.75 713.125,280.25 698.125,263.5 702.375,260 "/>
<polygon style="fill:#BF8484;" points="135.5,402 199,492.5 199,551 101.667,551 85.25,518.208 101.25,483.229 95.75,479.49 
	93.688,461.057 94.75,456.497 45.5,446.249 47.25,420.499 135.25,435 "/>
<polygon style="fill:#BF8484;" points="309.25,591 399,680.5 399.063,738.938 301.667,739.083 260.5,702.75 274.75,661.5 
	286.25,651.25 293.688,649.063 306.5,629.5 "/>
<polygon style="fill:#BF8484;" points="510,33 599,124.5 599.063,182.938 501.667,183.083 470,146 493.25,86.75 506.5,73.5 "/>
<polyline style="fill:#638082;" points="738,427.5 799.958,479.875 800,551 722.396,551.042 690.25,517 694.75,451.75 702.5,431.25 
	730.75,432.25 737.982,427.497 "/>
<polyline style="fill:#638082;" points="64.375,328.375 61.612,334.7 56.188,334.719 55.997,332.374 47.87,332.498 43.25,334.688 
	97.228,367.744 198.957,367.987 198.833,341.167 136.5,234.25 136.167,239.333 134.667,282.167 112.167,299.833 89,298.667 
	73.75,299.125 73.807,307.528 84.75,317.5 84.5,325.25 61.612,334.7 "/>
<polyline style="fill:#638082;" points="232.667,133 297.375,182.969 398.957,182.987 398.833,156.167 311,56.667 309.667,100.333 
	312.167,114.833 289,113.667 273.75,114.125 "/>
<polyline style="fill:#638082;" points="450,705.75 497.234,739.016 598.957,738.987 599,698.375 548,623.5 524.5,597.5 
	467.5,649.75 457.75,659.5 453.75,670 "/>
<path style="fill:#77979B;" d="M553.33,251.025l-24.776-26.027c-2.433-2.554-6.478-2.655-9.032-0.221l-27.721,26.391l1.746,1.408
	l-55.897,53.211l15.425,16.202l0.549-3.406l7.455,0.707l1.11-6.901l7.403,1.074l1.17-7.274l7.383,1.188l1.186-7.38l7.383,1.184
	l1.182-7.387l7.382,1.192l1.188-7.384l7.384,1.186l1.19-7.381l7.38,1.186l1.186-7.381l9.588,1.541l6.834,5.274l23.079-21.973
	C555.664,257.621,555.763,253.577,553.33,251.025z M540.739,256.941l-11.298,10.754l-21.306-17.197l13.887-13.222
	c0.462-0.441,1.083-0.679,1.722-0.664c0.644,0.016,1.251,0.286,1.692,0.749l1.355,1.425c-1.055,1.003-1.667,2.383-1.703,3.837
	c-0.036,1.454,0.506,2.864,1.51,3.917l5.115,5.375c1.003,1.055,2.383,1.665,3.838,1.701c1.454,0.036,2.864-0.511,3.915-1.514
	l1.357,1.42c0.441,0.464,0.68,1.087,0.664,1.726C541.474,255.89,541.204,256.496,540.739,256.941z"/>
<path style="fill:#1D5258;" d="M737.982,427.497h-0.002c-12.356,0-22.49-9.131-24.254-20.996h-5.63v-4.428H689.08v4.428h-29.886
	v31.996h29.886v75.169c0,3.407,2.763,6.17,6.17,6.17h6.676c3.407,0,6.17-2.763,6.17-6.17v-75.169h29.886V427.497z"/>
<g>
	<polygon style="fill:#B75551;" points="715.155,279.739 697.382,261.97 691.885,267.464 696.597,272.17 656.66,312.104 
		649.475,312.782 640.767,327.995 649.126,336.356 664.497,327.484 665.019,320.466 704.952,280.526 709.657,285.232 	"/>
	<path style="fill:#B75551;" d="M731.048,222.012l-34.757,34.755l24.065,24.061l35.39-35.383c1.278-1.28,1.998-3.02,1.998-4.833
		c0-1.807-0.72-3.548-1.998-4.827l-13.773-13.773C738.957,218.995,734.064,218.995,731.048,222.012z"/>
</g>
<path style="fill:#BF8484;" d="M449.126,151.356"/>
<polyline style="fill:#9E4747;" points="110.609,590.672 198.958,667.875 199,739 97.344,739.016 81.328,705.234 91.083,705.5 
	99.083,701.25 100.5,665.375 95.063,665.125 81,666.5 81,660 81.438,618.625 110.561,590.646 "/>
<polyline style="fill:#9E4747;" points="722.833,36.5 799.958,111.875 800,183 720.333,183 703.833,144.667 703.667,92.583 
	704.875,78.875 696.917,70.167 694,36.833 "/>
<polyline style="fill:#9E4747;" points="336.5,235.5 398.958,296.875 399,368 319.333,368 290.167,332.333 302.667,277.583 
	303.875,263.875 295.917,255.167 296,240.5 "/>
<polyline style="fill:#9E4747;" points="536.25,428 599,501.5 599,551 506.167,551.167 451.167,515.667 504.75,464.75 514.5,457.75 
	523.5,446.75 531.5,440.25 "/>
<g>
	<path style="fill:#D8A3A3;" d="M82.274,628.575c0-5.043,4.086-9.131,9.129-9.131c5.044,0,9.129,4.088,9.129,9.131v28.781h11.833
		c1.757,0,3.427-0.751,4.593-2.061c1.17-1.31,1.721-3.058,1.516-4.802l-6.883-58.847H71.216l-6.883,58.856
		c-0.205,1.74,0.345,3.485,1.512,4.797c1.163,1.309,2.833,2.057,4.586,2.057h11.843V628.575z"/>
	<path style="fill:#D8A3A3;" d="M96.883,628.575c0-3.027-2.455-5.479-5.479-5.479c-3.024,0-5.479,2.451-5.479,5.479v36.738h-5.447
		v36.856c0,3.389,2.75,6.14,6.142,6.14h9.568c3.391,0,6.141-2.75,6.141-6.14v-36.856h-5.447V628.575z"/>
</g>
<g>
	<path style="fill:#1D5258;" d="M106.821,307.528H73.807V292.41h11.368v-16.336h15.118v16.336h6.528
		c10.753,0,19.498-8.746,19.498-19.5v-20.928c0-10.752-8.746-19.5-19.498-19.5H73.807v-15.116h33.014
		c19.086,0,34.614,15.53,34.614,34.616v20.928C141.436,291.998,125.908,307.528,106.821,307.528z"/>
	<polygon style="fill:#1D5258;" points="56.866,318.403 56.866,322.772 61.612,322.772 61.612,318.403 85.175,318.403 
		85.175,313.252 100.293,313.252 100.293,318.403 123.856,318.403 123.856,322.772 137.4,322.772 137.4,318.403 150.945,318.403 
		150.945,334.7 137.4,334.7 137.4,330.33 123.856,330.33 123.856,334.7 61.612,334.7 61.612,330.33 56.866,330.33 56.866,334.7 
		43.323,334.7 43.323,318.403 	"/>
	<path style="fill:#1D5258;" d="M100.131,264.587c2.952,0,5.347,2.396,5.347,5.35v2.034H80.087v-2.034
		c0-2.954,2.396-5.35,5.347-5.35H100.131z"/>
</g>
<path style="fill:#D8A3A3;" d="M696.876,48.189h29.296v-3.085c0-7.185-5.821-13.008-13.004-13.008h-36.004v16.093h4.404l1.584,1.584
	c0.299,0.299,0.466,0.704,0.466,1.127c0,0.423-0.167,0.828-0.468,1.127l-0.945,0.947c-0.3,0.299-0.468,0.704-0.468,1.126
	c0,0.423,0.167,0.828,0.466,1.127l0.949,0.949c0.623,0.623,0.623,1.631,0,2.253l-0.947,0.947c-0.623,0.623-0.623,1.631,0,2.253
	l0.947,0.947c0.299,0.299,0.466,0.704,0.466,1.127c0,0.423-0.167,0.828-0.468,1.127l-0.983,0.983
	c-0.599,0.599-0.625,1.559-0.059,2.19c0.977,1.091,1.974,2.297,1.974,2.297h-6.919v4.642h-5.969v6.809h5.969v4.64h4.203l1.786,1.786
	c0.623,0.623,0.623,1.63,0,2.253l-1.179,1.181c-0.18,0.18-0.234,0.448-0.137,0.682c0.097,0.234,0.326,0.387,0.58,0.387h14.461
	v-6.289h6.8v56.98c0,3.495,2.831,6.327,6.325,6.327h4.635c3.493,0,6.327-2.833,6.327-6.327v-56.98h5.209V70.299h-5.209v-6.267
	h-17.287v6.267h-6.8V48.189z"/>
<g>
	<path style="fill:#77979B;" d="M148.954,71.619c8.096-6.464,9.428-18.266,2.959-26.369l-4.676-5.866
		c-6.469-8.1-18.273-9.421-26.373-2.961L52.579,90.919l28.086,35.194L148.954,71.619z M132.672,64.102
		c1.706,2.138,1.357,5.254-0.781,6.96l-15.166,12.101c-2.138,1.705-5.252,1.355-6.958-0.779l-2.523-3.157l-27.636,22.066
		l-3.064-3.829l27.651-22.067l-2.516-3.152c-0.817-1.026-1.195-2.336-1.051-3.643c0.148-1.305,0.806-2.498,1.836-3.317
		l15.159-12.097c1.03-0.821,2.34-1.197,3.643-1.051c1.307,0.147,2.502,0.806,3.319,1.834l2.513,3.15l9.504-7.576l3.053,3.829
		l-9.493,7.577L132.672,64.102z"/>
	<path style="fill:#77979B;" d="M80.503,63.114l-1.35-1.693c-0.957-1.199-2.415-1.887-3.949-1.863
		c-1.533,0.025-2.97,0.758-3.891,1.987l-6.332,8.469l-9.666,4.298c-1.4,0.623-2.433,1.859-2.797,3.35
		c-0.363,1.49-0.018,3.064,0.94,4.264l1.35,1.693L80.503,63.114z"/>
	<polygon style="fill:#77979B;" points="41.949,104.37 45.069,149.556 74.873,125.773 51.625,96.645 	"/>
</g>
<g>
	<path style="fill:#B75551;" d="M135.259,414.03v-12.704H51.674v12.704h-11.35v37.617l48.778,7.846v20.8h-4.402V518.7h17.711
		v-38.407h-4.907v-27.55l-48.785-7.846v-22.465h2.956v12.715h83.585v-12.715h3.362v-8.402H135.259z M130.918,432.433
		c0,0-1.602-0.569-2.83-6.093c-1.087-4.896-6.296-3.713-8.812-2.502c-1.811,0.87-5.439,3.591-5.439-3.265
		c0-6.854-4.486-2.378-7.653-4.97c-3.193-2.61-1.49-5.184-2.898-6.381c-2.901-2.468-10.753-3.555-10.753-3.555h38.385V432.433z"/>
</g>
<path style="fill:#B75551;" d="M311.099,636.299c0.004-0.014,9.383-10.868,9.383-10.868l-11.142-34.44h-11.143v10.224
	c4.64,0.497,8.269,4.374,8.269,9.147c0,4.773-3.629,8.651-8.269,9.144v4.838h-1.886v-4.835c-4.674-0.461-8.335-4.349-8.335-9.147
	c0-4.799,3.661-8.694,8.335-9.151v-10.22H285.17l-11.144,34.44c0,0,9.378,10.853,9.383,10.868
	c-10.546,11.275-23.863,31.452-23.863,61.543c0,5.565,4.509,10.076,10.072,10.076c5.562,0,10.072-4.51,10.072-10.076
	c0-22.863,9.743-38.223,17.564-46.899c7.821,8.676,17.565,24.036,17.565,46.899c0,5.565,4.509,10.076,10.071,10.076
	c5.563,0,10.072-4.51,10.072-10.076C334.963,667.751,321.645,647.574,311.099,636.299z"/>
<path style="fill:#77979B;" d="M754.467,615.132c-1.479-0.572-3.161-0.216-4.271,0.911l-13.089,13.222l-19.083-18.881l13.177-13.308
	c1.113-1.12,1.456-2.805,0.873-4.266c-0.581-1.473-1.985-2.459-3.565-2.52c-7.929-0.27-15.946,2.628-21.968,8.712
	c-8.087,8.175-10.398,19.864-7.018,30.076l-56.669,57.234c-3.348,3.387-3.324,8.852,0.058,12.2l6.818,6.75
	c3.384,3.352,8.845,3.323,12.2-0.065l56.712-57.274c10.213,3.197,21.808,0.749,29.857-7.383c5.968-6.026,8.789-13.985,8.501-21.848
	C756.939,617.112,755.94,615.712,754.467,615.132z M659.287,695.974c-1.987,2.005-5.231,2.023-7.241,0.032
	c-2.01-1.984-2.025-5.231-0.038-7.243c1.991-2.012,5.236-2.027,7.241-0.039C661.262,690.719,661.282,693.958,659.287,695.974z"/>
<path style="fill:#D8A3A3;" d="M340.02,247.934c0-13.366-10.839-24.209-24.209-24.209h-38.213v4.039h-2.757v-9.493h-16.225v38.141
	h16.225v-9.493h2.757v4.035h11.682v78.344c0,3.6,2.916,6.516,6.516,6.516h7.041c3.6,0,6.516-2.916,6.516-6.516v-78.344h30.667
	V247.934z"/>
<g>
	<path style="fill:#1D5258;" d="M342.17,116.415v3.089h-19.651V84.686h-0.105c-1.033-23.888-20.677-42.957-44.822-42.957
		c-24.152,0-43.789,19.069-44.826,42.957h-0.101v48.015h89.853v-7.02h19.651v16.567h2.653c2.722,0,4.928-2.207,4.928-4.929v-15.976
		c0-2.722-2.207-4.929-4.928-4.929H342.17z M277.593,110.577c-13.208,0-23.921-10.717-23.921-23.921
		c0-13.208,10.713-23.925,23.921-23.925c13.204,0,23.921,10.717,23.921,23.925C301.513,99.86,290.797,110.577,277.593,110.577z"/>
	<path style="fill:#1D5258;" d="M273.316,85.118V85.05c2.711-0.947,4.035-2.78,4.035-5.116c0-3.017-2.61-5.49-7.322-5.49
		c-2.848,0-5.49,0.813-6.814,1.66l1.055,3.729c0.914-0.547,2.811-1.321,4.604-1.321c2.171,0,3.254,0.979,3.254,2.3
		c0,1.865-2.199,2.509-3.927,2.545h-1.998v3.693h2.099c2.271,0,4.442,0.979,4.442,3.15c0,1.66-1.357,2.948-4.035,2.948
		c-2.099,0-4.201-0.882-5.119-1.354l-1.047,3.859c1.285,0.817,3.693,1.559,6.541,1.559c5.591,0,9.014-2.848,9.014-6.743
		C278.096,87.588,275.962,85.593,273.316,85.118z"/>
	<path style="fill:#1D5258;" d="M291.686,85.223c-0.803,0-1.469,0.176-2.066,0.533c-0.511,0.309-1.004,0.752-1.404,1.31h-0.039
		c-0.468-1.134-1.581-1.843-2.981-1.843c-1.869,0-2.823,1.022-3.294,1.714h-0.068l-0.151-1.469h-2.844
		c0.043,0.954,0.083,2.11,0.083,3.467v7.401h3.294v-6.332c0-0.27,0.018-0.58,0.133-0.846c0.202-0.558,0.709-1.228,1.573-1.228
		c1.069,0,1.559,0.936,1.559,2.318v6.087h3.29v-6.357c0-0.27,0.047-0.627,0.137-0.868c0.22-0.644,0.777-1.181,1.555-1.181
		c1.087,0,1.602,0.914,1.602,2.495v5.911h3.29v-6.401C295.354,86.691,293.777,85.223,291.686,85.223z"/>
</g>
<g>
	<path style="fill:#D8A3A3;" d="M547.026,441.599l-11.496-14.4l-30.966,24.706l2.595,3.251l-24.965,19.922l-1.877-2.358
		l-33.608,26.819c-2.928,2.34-3.405,6.606-1.067,9.533l4.572,5.731c2.338,2.927,6.604,3.413,9.532,1.076l33.608-26.819l-1.877-2.354
		l25.062-19.997c1.692,1.631,4.331,1.861,6.217,0.356l6.41-5.115l3.682,4.615l10.699-8.539l-3.681-4.615l6.406-5.108
		C548.327,446.661,548.667,443.658,547.026,441.599z"/>
	<path style="fill:#D8A3A3;" d="M504.6,446.848l25.989-20.739l-19.295-24.18c-1.643-2.059-4.64-2.398-6.697-0.756l-18.539,14.795
		c-2.057,1.642-2.394,4.64-0.752,6.7L504.6,446.848z M512.204,413.722l9.401,11.771l-2.999,2.394l-9.397-11.779L512.204,413.722z
		 M506.922,407.102l2.928,3.661l-2.998,2.394l-2.925-3.664L506.922,407.102z"/>
</g>
<g>
	<path style="fill:#B75551;" d="M518.986,81.558l-9.217-49.084h-6.048v40.671h-7.9V32.474h-6.048l-9.217,49.084
		c0,0,7.756,8.982,7.761,8.993c-8.724,9.331-19.741,26.02-19.741,50.916c0,4.6,3.729,8.333,8.333,8.333
		c4.601,0,8.334-3.733,8.334-8.333c0-18.662,7.839-31.268,14.261-38.493v-0.007c0,0,7.689-8.283,12.891-13.773
		C514.677,86.789,518.986,81.558,518.986,81.558z M499.68,91.894c-1.652,0-2.993-1.339-2.993-2.995c0-1.652,1.341-2.991,2.993-2.991
		c1.651,0,2.992,1.339,2.992,2.991C502.672,90.555,501.331,91.894,499.68,91.894z"/>
	<path style="fill:#B75551;" d="M513.201,92.783l-11.413,12.297c6.012,7.466,12.513,19.392,12.513,36.387
		c0,4.6,3.732,8.333,8.332,8.333c4.604,0,8.333-3.733,8.333-8.333C530.967,118.41,521.526,102.434,513.201,92.783z"/>
</g>
<path style="fill:#1D5258;" d="M554.95,624.332l-24.274-32.028c-2.372-3.146-6.858-3.762-10.004-1.379l-34.112,25.847l3.953,4.003
	l-30.772,23.219c-17.319,13.064-21.981,36.701-11.912,55.211l-2.02,1.526l4.255,5.641l71.627-54.041l3.477,3.528l28.403-21.527
	C556.718,631.953,557.333,627.474,554.95,624.332z M461.102,689.191c-4.784-11.127-1.591-24.515,8.499-32.132l32.518-24.533
	l14.558,14.738L461.102,689.191z M540.22,629.321l-13.896,10.544l-21.531-21.786l17.096-12.956c0.558-0.428,1.285-0.616,1.994-0.515
	c0.713,0.097,1.354,0.468,1.786,1.044l1.321,1.753c-1.296,0.979-2.145,2.437-2.369,4.05c-0.22,1.613,0.205,3.244,1.191,4.532
	l5.011,6.616c0.979,1.314,2.434,2.153,4.05,2.376c1.609,0.223,3.24-0.209,4.536-1.191l1.328,1.749
	c0.435,0.572,0.626,1.292,0.522,2.002C541.166,628.249,540.788,628.889,540.22,629.321z"/>
<path style="fill:#77979B;" d="M314.327,481.072c-0.803-9.111-5.587-17.023-13.172-21.095c0.122-0.648,0.212-1.31,0.212-1.991
	c-0.003-4.751-2.793-8.809-6.8-10.745l-0.032-43.274c0-2.484-2.012-4.496-4.5-4.496l-1.386,0.004c-1.191,0-2.333,0.479-3.179,1.318
	c-0.839,0.846-1.317,1.987-1.314,3.182l0.032,43.274c-4,1.94-6.786,6.005-6.782,10.756c0,0.681,0.094,1.343,0.22,1.991
	c-7.581,4.082-12.358,11.998-13.143,21.113c-0.544,6.282-2.693,21.275-3.938,29.699c-0.223,1.509,0.227,3.039,1.224,4.194
	c1.001,1.156,2.448,1.814,3.971,1.811l47.378-0.032c1.523-0.004,2.97-0.67,3.964-1.822c0.997-1.156,1.447-2.685,1.224-4.19
	C317.052,502.341,314.878,487.354,314.327,481.072z M304.125,503.489l-1.811-12.556l-1.796,12.556l-8.611,0.011l-2.509-28.111
	l-2.462,28.115l-8.614,0.004l-1.811-12.556l-1.796,12.56l-5.818,0.003c1.091-8.02,2.909-21.376,2.945-21.772
	c2.056-23.003,33.029-23.133,35.128-0.025c0.036,0.393,1.868,13.748,2.973,21.765L304.125,503.489z"/>
</svg>
